<svg width="118" height="100" viewBox="0 0 118 100" fill="none" xmlns="http://www.w3.org/2000/svg">
<path d="M64 20H53C51.8954 20 51 19.1046 51 18V16.2603C51 11.6465 52.9917 7.25729 56.4639 4.21908L58.2959 2.61608C58.6921 2.2694 59.2893 2.28928 59.6615 2.66155L61.3137 4.31372C64.3143 7.3143 66 11.384 66 15.6274V18C66 19.1046 65.1046 20 64 20Z" fill="white"/>
<path d="M82.4156 20.5469L79.0023 22.4432C78.4723 22.7376 78.3242 23.4322 78.688 23.9173L86.3459 34.1279C86.7685 34.6913 87.3757 35.0881 88.0614 35.2488L114.468 41.4378C115.517 41.6836 116.159 40.3251 115.304 39.6701L91.1641 21.1881C88.6355 19.2522 85.1995 19.0003 82.4156 20.5469Z" fill="white"/>
<path d="M35.223 19.6892L39.7731 21.5092C40.3887 21.7555 40.5986 22.5218 40.1943 23.0474L31.6521 34.1523C31.2304 34.7006 30.6322 35.0862 29.9588 35.2441L3.53227 41.4378C2.48337 41.6836 1.84076 40.3251 2.69617 39.6701L27.3886 20.765C29.6279 19.0505 32.6045 18.6418 35.223 19.6892Z" fill="white"/>
<path d="M36.954 89.8327L29.1863 80.3388C28.8189 79.8897 28.144 79.8561 27.7336 80.2664L21.9263 86.0737C19.4259 88.5741 19.264 92.5753 21.5541 95.2696C24.0014 98.1487 28.3287 98.4751 31.1801 95.9956L36.8493 91.0658C37.2118 90.7506 37.2582 90.2044 36.954 89.8327Z" fill="white"/>
<path d="M79.546 89.3327L87.3137 79.8388C87.6812 79.3897 88.3561 79.3561 88.7664 79.7664L94.5737 85.5737C97.0741 88.0741 97.236 92.0753 94.9459 94.7696C92.4986 97.6487 88.1713 97.9751 85.3199 95.4956L79.6507 90.5658C79.2882 90.2506 79.2419 89.7044 79.546 89.3327Z" fill="white"/>
<path d="M46.5 26H72.5M46.5 26L37.0716 37.714C32.4952 43.3999 30 50.4795 30 57.7784V60M46.5 26L52 46.5M72.5 26L80.9256 38.3375C84.5572 43.6552 86.5 49.9449 86.5 56.3843V60M72.5 26L64.5 46.5M52 46.5H64.5M52 46.5L46.5 60M64.5 46.5L70 60M46.5 60L52 70.5M46.5 60H30M52 70.5H64.5M52 70.5L44 86.8182M64.5 70.5L70 60M64.5 70.5L72.5 86.8182M70 60H86.5M86.5 60V60.2867C86.5 70.1971 81.9082 79.5482 74.0663 85.6079L72.5 86.8182M30 60V60.2867C30 70.1971 34.5918 79.5482 42.4337 85.6079L44 86.8182M44 86.8182L47.6784 89.6606C50.4801 91.8255 53.9208 93 57.4615 93H59.0385C62.5792 93 66.0199 91.8255 68.8216 89.6606L72.5 86.8182M53 20H64C65.1046 20 66 19.1046 66 18V15.6274C66 11.384 64.3143 7.3143 61.3137 4.31372L59.6615 2.66155C59.2893 2.28928 58.6921 2.2694 58.2959 2.61608L56.4639 4.21908C52.9917 7.25729 51 11.6465 51 16.2603V18C51 19.1046 51.8954 20 53 20ZM79.0023 22.4432L82.4156 20.5469C85.1995 19.0003 88.6355 19.2522 91.1641 21.1881L115.304 39.6701C116.159 40.3251 115.517 41.6836 114.468 41.4378L88.0614 35.2488C87.3757 35.0881 86.7685 34.6913 86.3459 34.1279L78.688 23.9173C78.3242 23.4322 78.4723 22.7376 79.0023 22.4432ZM39.7731 21.5092L35.223 19.6892C32.6045 18.6418 29.6279 19.0505 27.3886 20.765L2.69617 39.6701C1.84076 40.3251 2.48337 41.6836 3.53227 41.4378L29.9588 35.2441C30.6322 35.0862 31.2304 34.7006 31.6521 34.1523L40.1943 23.0474C40.5986 22.5218 40.3887 21.7555 39.7731 21.5092ZM29.1863 80.3388L36.954 89.8327C37.2582 90.2044 37.2118 90.7506 36.8493 91.0658L31.1801 95.9956C28.3287 98.4751 24.0014 98.1487 21.5541 95.2696C19.264 92.5753 19.4259 88.5741 21.9263 86.0737L27.7336 80.2664C28.144 79.8561 28.8189 79.8897 29.1863 80.3388ZM87.3137 79.8388L79.546 89.3327C79.2419 89.7044 79.2882 90.2506 79.6507 90.5658L85.3199 95.4956C88.1713 97.9751 92.4986 97.6487 94.9459 94.7696C97.236 92.0753 97.0741 88.0741 94.5737 85.5737L88.7664 79.7664C88.3561 79.3561 87.6812 79.3897 87.3137 79.8388Z" stroke="white" stroke-width="3"/>
</svg>
